<svg width="28" height="30" viewBox="0 0 28 30" fill="none" xmlns="http://www.w3.org/2000/svg"><g filter="url(#filter0_d_1674_3398)"><path d="M14.875 16.5C14.875 16.6492 14.8157 16.7923 14.7103 16.8977C14.6048 17.0032 14.4617 17.0625 14.3125 17.0625C13.9644 17.0625 13.6306 16.9242 13.3844 16.6781C13.1383 16.4319 13 16.0981 13 15.75V12C13 11.9503 12.9803 11.9026 12.9451 11.8674C12.9099 11.8323 12.8622 11.8125 12.8125 11.8125C12.6633 11.8125 12.5202 11.7532 12.4148 11.6477C12.3093 11.5423 12.25 11.3992 12.25 11.25C12.25 11.1008 12.3093 10.9577 12.4148 10.8523C12.5202 10.7468 12.6633 10.6875 12.8125 10.6875C13.1606 10.6875 13.4944 10.8258 13.7406 11.0719C13.9867 11.3181 14.125 11.6519 14.125 12V15.75C14.125 15.7997 14.1448 15.8474 14.1799 15.8826C14.2151 15.9177 14.2628 15.9375 14.3125 15.9375C14.4617 15.9375 14.6048 15.9968 14.7103 16.1023C14.8157 16.2077 14.875 16.3508 14.875 16.5ZM13.1875 8.8125C13.3729 8.8125 13.5542 8.75752 13.7084 8.6545C13.8625 8.55149 13.9827 8.40507 14.0536 8.23377C14.1246 8.06246 14.1432 7.87396 14.107 7.6921C14.0708 7.51025 13.9815 7.3432 13.8504 7.21209C13.7193 7.08098 13.5523 6.99169 13.3704 6.95551C13.1885 6.91934 13 6.93791 12.8287 7.00886C12.6574 7.07982 12.511 7.19998 12.408 7.35415C12.305 7.50832 12.25 7.68958 12.25 7.875C12.25 8.12364 12.3488 8.3621 12.5246 8.53791C12.7004 8.71373 12.9389 8.8125 13.1875 8.8125ZM23.125 12C23.125 13.8913 22.5642 15.7401 21.5134 17.3126C20.4627 18.8852 18.9692 20.1108 17.2219 20.8346C15.4746 21.5584 13.5519 21.7477 11.697 21.3788C9.84201 21.0098 8.13814 20.099 6.8008 18.7617C5.46346 17.4244 4.55272 15.7205 4.18375 13.8656C3.81477 12.0106 4.00414 10.0879 4.72791 8.34059C5.45167 6.59327 6.67732 5.09981 8.24986 4.04907C9.82241 2.99833 11.6712 2.4375 13.5625 2.4375C16.0977 2.44048 18.5283 3.44891 20.3209 5.24158C22.1136 7.03425 23.122 9.46478 23.125 12ZM22 12C22 10.3312 21.5052 8.69992 20.578 7.31238C19.6509 5.92484 18.3331 4.84338 16.7914 4.20477C15.2496 3.56615 13.5531 3.39906 11.9164 3.72462C10.2797 4.05019 8.7763 4.85378 7.59629 6.03379C6.41629 7.21379 5.61269 8.71721 5.28713 10.3539C4.96157 11.9906 5.12866 13.6871 5.76727 15.2289C6.40588 16.7706 7.48734 18.0884 8.87488 19.0155C10.2624 19.9426 11.8937 20.4375 13.5625 20.4375C15.7995 20.435 17.9442 19.5453 19.526 17.9635C21.1078 16.3817 21.9975 14.237 22 12Z" fill="#DAC5A7"/></g><defs><filter id="filter0_d_1674_3398" x="-2.4375" y="0" width="32" height="32" filterUnits="userSpaceOnUse" color-interpolation-filters="sRGB"><feFlood flood-opacity="0" result="BackgroundImageFix"/><feColorMatrix in="SourceAlpha" type="matrix" values="0 0 0 0 0 0 0 0 0 0 0 0 0 0 0 0 0 0 127 0" result="hardAlpha"/><feOffset dy="4"/><feGaussianBlur stdDeviation="2"/><feComposite in2="hardAlpha" operator="out"/><feColorMatrix type="matrix" values="0 0 0 0 0 0 0 0 0 0 0 0 0 0 0 0 0 0 0.25 0"/><feBlend mode="normal" in2="BackgroundImageFix" result="effect1_dropShadow_1674_3398"/><feBlend mode="normal" in="SourceGraphic" in2="effect1_dropShadow_1674_3398" result="shape"/></filter></defs></svg>