<svg width="52" height="19" viewBox="0 0 52 19" fill="none" xmlns="http://www.w3.org/2000/svg"><path d="M6.196 18.302C8.513 18.302 10.402 17.029 11.334 15.171V18.047H12.82V11.836C12.82 8.222 9.999 5.422 6.398 5.422 2.745 5.422 0 8.324 0 11.836 0 15.4 2.67 18.302 6.196 18.302ZM6.398 16.8C3.703 16.8 1.562 14.56 1.562 11.862 1.562 9.164 3.703 6.924 6.398 6.924 9.118 6.924 11.259 9.164 11.259 11.862 11.259 14.56 9.118 16.8 6.398 16.8ZM19.306 18.047V10.513C19.306 8.4 20.465 7.051 22.329 7.051 23.034 7.051 23.714 7.229 24.319 7.585V5.982C23.689 5.676 22.958 5.524 22.203 5.524 19.382 5.524 17.745 7.56 17.745 10.436V18.047H19.306ZM28.218 2.724C28.848 2.724 29.326 2.215 29.326 1.553 29.326.891 28.848.382 28.218.382 27.588.382 27.085.891 27.085 1.553 27.085 2.215 27.588 2.724 28.218 2.724ZM27.437 5.702V18.047H28.999V5.702H27.437ZM36.318 18.047V12.524H38.106C38.232 12.906 38.434 13.287 38.761 13.618L43.119 18.047H45.159L39.844 12.626C39.593 12.371 39.441 12.116 39.441 11.862 39.441 11.582 39.593 11.353 39.844 11.098L45.184 5.702H43.22L38.812 10.156C38.509 10.462 38.283 10.793 38.157 11.124H36.318V0H34.757V18.047H36.318ZM50.211 18.251C50.84 18.251 51.344 17.742 51.344 17.08 51.344 16.444 50.84 15.96 50.211 15.96 49.581 15.96 49.077 16.444 49.077 17.08 49.077 17.742 49.581 18.251 50.211 18.251Z" fill="#DAC5A7"/></svg>