<svg width="24" height="24" viewBox="0 0 24 24" fill="none" xmlns="http://www.w3.org/2000/svg"><path d="M13.361 4.724 C 13.277 4.742,13.169 4.811,13.091 4.896 C 12.983 5.014,12.960 5.071,12.960 5.222 C 12.960 5.323,12.980 5.445,13.004 5.493 C 13.028 5.541,14.365 6.899,15.974 8.510 L 18.900 11.440 11.265 11.440 L 3.631 11.440 3.482 11.524 C 3.292 11.630,3.200 11.787,3.200 12.001 C 3.200 12.214,3.318 12.411,3.497 12.496 C 3.620 12.554,4.338 12.560,11.266 12.560 L 18.900 12.560 15.974 15.490 C 14.365 17.102,13.028 18.459,13.004 18.507 C 12.980 18.555,12.960 18.676,12.960 18.776 C 12.960 19.115,13.329 19.389,13.645 19.285 C 13.743 19.252,14.729 18.291,17.280 15.740 L 20.780 12.240 20.780 12.000 L 20.780 11.760 17.277 8.257 C 13.531 4.511,13.690 4.655,13.361 4.724 " fill="#DAC5A7" stroke="none" fill-rule="evenodd"></path></svg>