<svg width="24" height="24" viewBox="0 0 24 24" fill="none" xmlns="http://www.w3.org/2000/svg"><path d="M17.800 5.484 C 17.745 5.506,15.194 8.029,12.130 11.092 L 6.560 16.660 6.560 12.400 C 6.560 8.423,6.555 8.131,6.490 8.003 C 6.385 7.797,6.234 7.705,6.005 7.705 C 5.779 7.705,5.632 7.785,5.518 7.972 C 5.442 8.097,5.440 8.215,5.440 13.120 C 5.440 18.059,5.442 18.142,5.520 18.270 C 5.564 18.342,5.658 18.436,5.730 18.480 C 5.858 18.558,5.941 18.560,10.860 18.560 C 15.541 18.560,15.869 18.555,15.997 18.490 C 16.203 18.385,16.300 18.229,16.300 18.000 C 16.300 17.771,16.203 17.615,15.997 17.510 C 15.869 17.445,15.577 17.440,11.600 17.440 L 7.340 17.440 12.928 11.850 C 17.873 6.902,18.518 6.243,18.541 6.113 C 18.619 5.681,18.202 5.327,17.800 5.484 " fill="#DAC5A7" stroke="none" fill-rule="evenodd"></path></svg>