<svg width="24" height="24" viewBox="0 0 24 24" fill="none" xmlns="http://www.w3.org/2000/svg"><path d="M11.780 3.237 C 11.736 3.257,10.131 4.845,8.214 6.767 C 5.414 9.572,4.722 10.286,4.701 10.390 C 4.663 10.572,4.741 10.775,4.904 10.918 C 5.015 11.016,5.079 11.040,5.224 11.040 C 5.324 11.040,5.445 11.020,5.493 10.996 C 5.541 10.972,6.898 9.635,8.510 8.026 L 11.440 5.100 11.440 12.734 C 11.440 19.662,11.446 20.380,11.504 20.503 C 11.691 20.896,12.309 20.896,12.496 20.503 C 12.554 20.380,12.560 19.662,12.560 12.734 L 12.560 5.100 15.490 8.029 C 17.574 10.112,18.464 10.975,18.571 11.020 C 18.776 11.104,18.992 11.046,19.153 10.862 C 19.297 10.698,19.341 10.525,19.283 10.350 C 19.253 10.258,18.213 9.193,15.745 6.725 L 12.249 3.229 12.054 3.215 C 11.948 3.207,11.824 3.217,11.780 3.237 " fill="#DAC5A7" stroke="none" fill-rule="evenodd"></path></svg>