<svg width="24" height="24" viewBox="0 0 24 24" fill="none" xmlns="http://www.w3.org/2000/svg"><path d="M8.003 5.510 C 7.797 5.615,7.700 5.771,7.700 6.000 C 7.700 6.229,7.797 6.385,8.003 6.490 C 8.131 6.555,8.423 6.560,12.400 6.560 L 16.660 6.560 11.072 12.150 C 6.127 17.098,5.482 17.757,5.459 17.887 C 5.387 18.284,5.734 18.621,6.130 18.540 C 6.235 18.518,7.328 17.445,11.850 12.927 L 17.440 7.340 17.440 11.624 L 17.440 15.908 17.531 16.044 C 17.779 16.416,18.289 16.391,18.490 15.997 C 18.555 15.869,18.560 15.541,18.560 10.860 C 18.560 5.941,18.558 5.858,18.480 5.730 C 18.436 5.658,18.342 5.564,18.270 5.520 C 18.142 5.442,18.059 5.440,13.140 5.440 C 8.459 5.440,8.131 5.445,8.003 5.510 " fill="#DAC5A7" stroke="none" fill-rule="evenodd"></path></svg>