<svg width="24" height="24" viewBox="0 0 24 24" fill="none" xmlns="http://www.w3.org/2000/svg"><path d="M5.730 5.520 C 5.658 5.564,5.564 5.658,5.520 5.730 C 5.442 5.858,5.440 5.941,5.440 10.884 L 5.440 15.908 5.531 16.044 C 5.779 16.416,6.289 16.391,6.490 15.997 C 6.555 15.869,6.560 15.577,6.560 11.600 L 6.560 7.340 12.130 12.906 C 15.194 15.967,17.739 18.492,17.787 18.516 C 18.198 18.723,18.723 18.198,18.516 17.787 C 18.492 17.739,15.967 15.194,12.906 12.130 L 7.340 6.560 11.600 6.560 C 15.577 6.560,15.869 6.555,15.997 6.490 C 16.203 6.385,16.300 6.229,16.300 6.000 C 16.300 5.771,16.203 5.615,15.997 5.510 C 15.869 5.445,15.541 5.440,10.860 5.440 C 5.941 5.440,5.858 5.442,5.730 5.520 " fill="#DAC5A7" stroke="none" fill-rule="evenodd"></path></svg>