<svg width="24" height="24" viewBox="0 0 24 24" fill="none" xmlns="http://www.w3.org/2000/svg"><path d="M2.730 5.519 C 2.658 5.563,2.564 5.658,2.520 5.730 C 2.441 5.858,2.440 5.944,2.440 12.000 C 2.440 18.056,2.441 18.142,2.520 18.270 C 2.564 18.342,2.658 18.436,2.730 18.480 C 2.857 18.558,2.937 18.560,6.180 18.560 C 8.256 18.559,9.597 18.544,9.760 18.518 C 11.580 18.231,12.920 16.674,12.926 14.840 C 12.928 14.036,12.738 13.396,12.301 12.740 C 11.916 12.163,11.302 11.648,10.676 11.380 L 10.412 11.267 10.656 10.964 C 10.961 10.585,11.164 10.201,11.304 9.739 C 11.397 9.430,11.413 9.305,11.416 8.840 C 11.420 8.274,11.377 8.028,11.192 7.560 C 10.813 6.602,9.952 5.838,8.925 5.548 C 8.628 5.464,8.547 5.462,5.740 5.450 C 2.914 5.439,2.858 5.440,2.730 5.519 M8.524 6.617 C 8.944 6.706,9.301 6.902,9.625 7.220 C 10.081 7.669,10.296 8.182,10.294 8.820 C 10.292 9.438,10.084 9.952,9.660 10.383 C 9.384 10.663,9.158 10.805,8.749 10.954 L 8.460 11.060 6.010 11.072 L 3.560 11.084 3.560 8.822 L 3.560 6.560 5.910 6.561 C 7.769 6.561,8.315 6.573,8.524 6.617 M15.452 7.038 C 15.113 7.245,15.121 7.762,15.466 7.988 C 15.570 8.056,15.758 8.060,18.738 8.060 C 21.818 8.060,21.903 8.058,22.031 7.981 C 22.162 7.901,22.320 7.639,22.320 7.500 C 22.320 7.366,22.164 7.100,22.045 7.029 C 21.936 6.965,21.690 6.960,18.754 6.960 C 15.677 6.960,15.576 6.963,15.452 7.038 M18.360 9.960 C 17.511 10.043,16.822 10.312,16.131 10.829 C 15.590 11.234,15.166 11.763,14.853 12.424 C 14.180 13.845,14.349 15.539,15.291 16.808 C 16.248 18.098,17.878 18.765,19.425 18.499 C 19.998 18.401,20.584 18.184,21.019 17.911 C 21.371 17.689,21.848 17.271,21.905 17.133 C 22.073 16.732,21.824 16.360,21.388 16.360 C 21.201 16.360,21.155 16.386,20.733 16.730 C 19.287 17.911,17.119 17.559,16.080 15.975 C 15.897 15.696,15.713 15.267,15.643 14.956 L 15.609 14.800 19.127 14.800 C 21.655 14.800,22.670 14.787,22.733 14.755 C 23.033 14.600,23.097 14.411,23.039 13.844 C 22.843 11.934,21.432 10.377,19.578 10.025 C 19.163 9.946,18.732 9.923,18.360 9.960 M19.514 11.144 C 20.671 11.429,21.622 12.404,21.859 13.550 L 21.886 13.680 18.746 13.680 L 15.605 13.680 15.680 13.408 C 15.915 12.561,16.442 11.885,17.206 11.448 C 17.463 11.301,17.960 11.130,18.272 11.080 C 18.577 11.032,19.187 11.063,19.514 11.144 M9.816 12.279 C 10.296 12.402,10.651 12.608,11.022 12.978 C 12.426 14.383,11.852 16.689,9.940 17.326 L 9.660 17.420 6.610 17.431 L 3.560 17.443 3.560 14.821 L 3.560 12.200 6.534 12.200 C 9.362 12.200,9.522 12.204,9.816 12.279 " fill="#DAC5A7" stroke="none" fill-rule="evenodd"></path></svg>