<svg width="24" height="24" viewBox="0 0 24 24" fill="none" xmlns="http://www.w3.org/2000/svg"><path d="M20.020 6.246 C 19.976 6.270,17.650 8.578,14.850 11.375 L 9.760 16.460 7.310 14.014 C 5.963 12.668,4.802 11.539,4.732 11.504 C 4.564 11.420,4.429 11.423,4.248 11.516 C 3.944 11.673,3.863 12.058,4.076 12.344 C 4.214 12.530,9.336 17.640,9.479 17.735 C 9.601 17.815,9.848 17.819,9.992 17.743 C 10.123 17.673,20.693 7.097,20.756 6.973 C 20.871 6.745,20.753 6.399,20.518 6.273 C 20.366 6.192,20.142 6.180,20.020 6.246 " fill="#DAC5A7" stroke="none" fill-rule="evenodd"></path></svg>