<svg width="24" height="24" viewBox="0 0 24 24" fill="none" xmlns="http://www.w3.org/2000/svg"><path d="M2.813 4.724 C 2.676 4.764,2.493 4.955,2.459 5.093 C 2.447 5.141,2.443 8.141,2.449 11.760 L 2.460 18.340 2.572 18.568 C 2.729 18.888,3.018 19.138,3.348 19.240 C 3.605 19.319,3.707 19.320,12.000 19.320 C 20.293 19.320,20.395 19.319,20.652 19.240 C 20.982 19.138,21.271 18.888,21.428 18.568 L 21.540 18.340 21.550 11.740 C 21.560 5.514,21.556 5.132,21.490 5.003 C 21.452 4.927,21.369 4.828,21.307 4.783 L 21.194 4.700 12.067 4.693 C 6.599 4.689,2.889 4.702,2.813 4.724 M19.513 5.834 C 19.496 5.876,12.029 12.720,12.000 12.720 C 11.971 12.720,4.504 5.876,4.487 5.834 C 4.479 5.815,7.860 5.800,12.000 5.800 C 16.140 5.800,19.521 5.815,19.513 5.834 M7.635 10.260 C 9.840 12.284,11.692 13.965,11.750 13.995 C 11.808 14.026,11.921 14.051,12.000 14.051 C 12.079 14.051,12.192 14.026,12.250 13.995 C 12.308 13.965,14.159 12.284,16.365 10.260 C 18.570 8.236,20.389 6.574,20.407 6.567 C 20.425 6.559,20.440 9.141,20.440 12.304 C 20.440 17.598,20.435 18.059,20.374 18.127 C 20.310 18.197,19.998 18.200,12.007 18.200 C 4.339 18.200,3.701 18.195,3.633 18.134 C 3.563 18.070,3.560 17.837,3.560 12.310 C 3.560 9.144,3.575 6.559,3.593 6.567 C 3.611 6.574,5.430 8.236,7.635 10.260 " fill="#DAC5A7" stroke="none" fill-rule="evenodd"></path></svg>