<svg width="28" height="30" viewBox="0 0 28 30" fill="none" xmlns="http://www.w3.org/2000/svg"><path d="M12.973 2.457 C 11.013 2.590,9.053 3.351,7.560 4.560 C 7.102 4.931,6.251 5.810,5.916 6.258 C 4.673 7.925,4.017 9.895,4.014 11.971 C 4.012 13.515,4.302 14.790,4.966 16.170 C 6.310 18.962,8.863 20.872,12.017 21.444 C 12.657 21.560,14.040 21.587,14.723 21.496 C 16.447 21.267,18.006 20.630,19.377 19.594 C 19.889 19.207,20.813 18.277,21.195 17.764 C 23.368 14.844,23.729 11.056,22.144 7.817 C 20.898 5.271,18.611 3.417,15.867 2.729 C 15.051 2.525,13.760 2.403,12.973 2.457 M14.318 3.615 C 15.228 3.666,16.381 3.989,17.298 4.449 C 19.843 5.725,21.518 8.057,21.915 10.873 C 22.018 11.610,21.984 12.886,21.841 13.603 C 21.649 14.570,21.198 15.708,20.689 16.507 C 19.311 18.674,17.062 20.079,14.468 20.392 C 11.807 20.714,8.897 19.560,7.164 17.495 C 5.216 15.174,4.628 12.136,5.577 9.298 C 5.989 8.068,6.643 7.025,7.604 6.065 C 8.360 5.310,8.896 4.919,9.777 4.480 C 10.524 4.108,11.186 3.876,11.923 3.730 C 12.434 3.629,13.340 3.551,13.697 3.577 C 13.799 3.584,14.079 3.601,14.318 3.615 M12.833 7.005 C 12.492 7.141,12.194 7.654,12.258 7.994 C 12.406 8.769,13.244 9.072,13.814 8.557 C 14.444 7.988,14.032 6.945,13.180 6.956 C 13.054 6.958,12.898 6.980,12.833 7.005 M12.577 10.749 C 12.403 10.827,12.328 10.916,12.275 11.102 C 12.187 11.407,12.395 11.741,12.701 11.790 C 12.799 11.806,12.898 11.842,12.923 11.872 C 12.949 11.903,12.973 12.771,12.982 13.978 C 12.996 16.005,12.998 16.033,13.104 16.263 C 13.294 16.675,13.597 16.919,14.067 17.037 C 14.468 17.138,14.798 16.953,14.866 16.590 C 14.924 16.282,14.730 16.054,14.303 15.929 L 14.163 15.888 14.140 13.789 C 14.118 11.774,14.113 11.681,14.018 11.476 C 13.761 10.921,13.019 10.547,12.577 10.749 " fill="#DAC5A7" stroke="none" fill-rule="evenodd"></path></svg>