<svg width="24" height="24" viewBox="0 0 24 24" fill="none" xmlns="http://www.w3.org/2000/svg"><path d="M7.400 2.842 C 5.917 2.973,4.504 3.816,3.652 5.080 C 3.334 5.551,3.036 6.289,2.893 6.960 C 2.825 7.278,2.820 7.610,2.820 12.000 C 2.820 16.390,2.825 16.722,2.893 17.040 C 3.348 19.172,4.828 20.652,6.960 21.107 C 7.278 21.175,7.610 21.180,12.000 21.180 C 16.390 21.180,16.722 21.175,17.040 21.107 C 19.172 20.652,20.652 19.172,21.107 17.040 C 21.175 16.722,21.180 16.390,21.180 12.000 C 21.180 7.610,21.175 7.278,21.107 6.960 C 20.659 4.860,19.207 3.383,17.130 2.913 C 16.742 2.826,16.717 2.825,12.260 2.817 C 9.796 2.813,7.609 2.824,7.400 2.842 M17.212 4.090 C 18.544 4.508,19.492 5.456,19.910 6.788 L 20.020 7.140 20.020 12.000 L 20.020 16.860 19.910 17.212 C 19.697 17.890,19.363 18.445,18.883 18.920 C 18.316 19.482,17.673 19.821,16.820 20.007 C 16.630 20.049,15.635 20.060,12.000 20.060 C 8.365 20.060,7.370 20.049,7.180 20.007 C 6.327 19.821,5.684 19.482,5.117 18.920 C 4.637 18.445,4.303 17.890,4.090 17.212 L 3.980 16.860 3.980 12.000 L 3.980 7.140 4.090 6.788 C 4.542 5.347,5.633 4.339,7.085 4.021 C 7.296 3.975,8.152 3.967,12.100 3.973 L 16.860 3.980 17.212 4.090 M16.449 6.303 C 15.831 6.611,15.764 7.473,16.326 7.880 C 16.944 8.327,17.802 7.885,17.799 7.122 C 17.796 6.421,17.082 5.988,16.449 6.303 M11.507 7.724 C 10.379 7.843,9.258 8.480,8.571 9.392 C 8.179 9.912,7.901 10.535,7.754 11.220 C 7.669 11.613,7.689 12.515,7.791 12.928 C 8.214 14.632,9.368 15.786,11.072 16.209 C 11.485 16.311,12.387 16.331,12.780 16.246 C 14.286 15.923,15.481 14.937,16.002 13.588 C 16.224 13.012,16.295 12.638,16.296 12.020 C 16.298 11.431,16.262 11.189,16.092 10.660 C 15.582 9.066,14.156 7.911,12.467 7.723 C 12.043 7.676,11.962 7.676,11.507 7.724 M12.779 8.924 C 14.200 9.267,15.165 10.511,15.165 12.000 C 15.165 13.642,14.018 14.930,12.348 15.163 C 11.245 15.318,10.028 14.757,9.366 13.789 C 8.753 12.894,8.656 11.640,9.121 10.644 C 9.765 9.268,11.272 8.560,12.779 8.924 " fill="#DAC5A7" stroke="none" fill-rule="evenodd"></path></svg>