<svg width="24" height="24" viewBox="0 0 24 24" fill="none" xmlns="http://www.w3.org/2000/svg"><path d="M14.897 3.262 C 14.236 3.374,13.540 3.649,12.960 4.030 C 12.604 4.263,12.049 4.755,11.513 5.309 C 11.101 5.735,11.043 5.851,11.097 6.137 C 11.125 6.289,11.338 6.503,11.501 6.544 C 11.765 6.610,11.866 6.545,12.579 5.844 C 13.308 5.127,13.578 4.920,14.104 4.674 C 14.606 4.439,14.973 4.355,15.604 4.331 C 16.221 4.307,16.580 4.362,17.138 4.564 C 18.119 4.919,19.021 5.807,19.414 6.806 C 19.615 7.315,19.657 7.570,19.655 8.260 C 19.653 8.965,19.600 9.242,19.361 9.804 C 19.106 10.403,18.863 10.701,17.522 12.054 C 16.828 12.755,16.116 13.444,15.940 13.585 C 15.567 13.885,15.049 14.152,14.540 14.306 C 14.211 14.406,14.123 14.416,13.520 14.416 C 12.963 14.417,12.807 14.403,12.522 14.328 C 12.088 14.213,11.449 13.906,11.127 13.656 C 10.988 13.548,10.826 13.429,10.767 13.390 C 10.550 13.249,10.173 13.339,10.025 13.568 C 9.831 13.869,9.949 14.182,10.380 14.510 C 12.244 15.926,14.714 15.927,16.596 14.512 C 16.886 14.294,19.530 11.649,19.751 11.356 C 20.190 10.775,20.474 10.181,20.669 9.440 C 20.803 8.931,20.840 7.958,20.746 7.418 C 20.374 5.281,18.721 3.630,16.585 3.261 C 16.154 3.187,15.343 3.187,14.897 3.262 M9.740 8.484 C 9.387 8.535,8.828 8.703,8.436 8.876 C 7.955 9.087,7.491 9.402,7.000 9.847 C 6.427 10.368,4.460 12.368,4.250 12.644 C 3.814 13.217,3.526 13.817,3.331 14.560 C 3.197 15.069,3.160 16.042,3.254 16.582 C 3.627 18.721,5.291 20.380,7.429 20.745 C 7.988 20.840,8.922 20.805,9.440 20.669 C 9.975 20.529,10.418 20.350,10.802 20.119 C 11.301 19.819,11.519 19.639,12.226 18.940 C 12.920 18.255,12.964 18.185,12.903 17.863 C 12.875 17.711,12.662 17.497,12.499 17.456 C 12.238 17.391,12.137 17.456,11.423 18.154 C 10.521 19.035,10.125 19.294,9.300 19.546 C 8.969 19.647,8.885 19.656,8.260 19.657 C 7.669 19.659,7.539 19.647,7.265 19.568 C 6.081 19.227,5.205 18.496,4.699 17.429 C 4.406 16.809,4.347 16.532,4.346 15.760 C 4.345 15.035,4.392 14.783,4.639 14.190 C 4.893 13.579,5.083 13.350,6.576 11.854 C 8.073 10.354,8.320 10.150,8.961 9.877 C 9.522 9.638,9.795 9.586,10.500 9.586 C 11.027 9.586,11.194 9.601,11.447 9.671 C 12.063 9.840,12.429 10.029,13.134 10.539 C 13.282 10.646,13.368 10.680,13.494 10.680 C 13.912 10.679,14.175 10.285,14.008 9.908 C 13.948 9.773,13.849 9.672,13.575 9.466 C 12.924 8.976,12.138 8.634,11.363 8.503 C 10.958 8.435,10.146 8.426,9.740 8.484 " fill="#DAC5A7" stroke="none" fill-rule="evenodd"></path></svg>