<svg width="52" height="19" viewBox="0 0 52 19" fill="none" xmlns="http://www.w3.org/2000/svg"><path d="M34.753 9.013 L 34.753 18.027 35.533 18.027 L 36.313 18.027 36.313 15.253 L 36.313 12.480 37.202 12.485 L 38.090 12.490 38.307 12.919 C 38.456 13.215,39.233 14.076,40.806 15.687 L 43.088 18.027 44.130 18.027 L 45.172 18.027 42.422 15.234 C 40.910 13.699,39.613 12.318,39.541 12.167 C 39.457 11.990,39.432 11.803,39.472 11.644 C 39.513 11.477,40.450 10.477,42.362 8.558 L 45.191 5.720 44.191 5.720 L 43.191 5.720 40.807 8.125 C 39.496 9.448,38.368 10.657,38.301 10.812 L 38.178 11.093 37.246 11.093 L 36.313 11.093 36.313 5.547 L 36.313 0.000 35.533 0.000 L 34.753 0.000 34.753 9.013 M27.626 0.569 C 26.935 0.944,26.946 2.194,27.644 2.555 C 27.969 2.723,28.451 2.723,28.776 2.555 C 29.445 2.209,29.475 1.002,28.824 0.576 C 28.555 0.400,27.944 0.396,27.626 0.569 M4.776 5.632 C 0.574 6.768,-1.286 11.495,0.966 15.319 C 1.380 16.022,2.443 17.063,3.149 17.459 C 4.198 18.045,4.911 18.230,6.153 18.237 C 7.126 18.243,7.315 18.218,8.011 17.990 C 9.296 17.569,10.431 16.684,11.077 15.600 L 11.310 15.210 11.334 16.618 L 11.358 18.027 12.098 18.027 L 12.838 18.027 12.807 14.322 C 12.777 10.728,12.770 10.598,12.576 10.010 C 11.882 7.906,10.456 6.434,8.450 5.755 C 7.488 5.430,5.742 5.371,4.776 5.632 M20.887 5.698 C 19.377 6.108,18.370 7.203,17.934 8.906 C 17.780 9.509,17.767 9.895,17.767 13.794 L 17.767 18.027 18.543 18.027 L 19.319 18.027 19.345 13.715 L 19.370 9.403 19.579 8.884 C 19.867 8.170,20.587 7.452,21.234 7.235 C 22.081 6.951,23.174 7.046,24.202 7.493 C 24.340 7.553,24.353 7.489,24.353 6.775 L 24.353 5.992 23.855 5.803 C 23.155 5.537,21.673 5.485,20.887 5.698 M27.387 11.873 L 27.387 18.027 28.210 18.027 L 29.033 18.027 29.033 11.873 L 29.033 5.720 28.210 5.720 L 27.387 5.720 27.387 11.873 M7.532 7.067 C 8.378 7.266,9.064 7.671,9.795 8.404 C 10.717 9.326,11.127 10.215,11.230 11.515 C 11.423 13.932,9.725 16.179,7.323 16.683 C 6.562 16.843,6.262 16.843,5.506 16.682 C 3.548 16.268,2.098 14.806,1.680 12.827 C 0.948 9.357,4.097 6.257,7.532 7.067 M49.665 16.105 C 49.347 16.276,49.053 16.731,49.053 17.053 C 49.053 17.667,49.590 18.199,50.210 18.200 C 51.385 18.201,51.747 16.618,50.697 16.075 C 50.365 15.903,50.023 15.913,49.665 16.105 " fill="#DAC5A7" stroke="none" fill-rule="evenodd"></path></svg>