<svg width="24" height="24" viewBox="0 0 24 24" fill="none" xmlns="http://www.w3.org/2000/svg"><path d="M7.240 2.537 C 5.188 2.965,3.621 4.594,3.257 6.680 C 3.166 7.201,3.198 8.582,3.319 9.380 C 3.903 13.234,6.010 16.532,9.241 18.651 C 10.841 19.700,12.649 20.382,14.620 20.681 C 15.406 20.800,16.800 20.834,17.305 20.745 C 18.374 20.559,19.332 20.066,20.079 19.319 C 21.166 18.231,21.797 16.462,21.387 15.653 C 21.273 15.428,21.049 15.188,20.865 15.092 C 20.802 15.060,19.722 14.592,18.466 14.054 C 16.574 13.243,16.141 13.071,15.939 13.053 C 15.502 13.012,15.366 13.078,13.979 14.001 C 13.286 14.463,12.680 14.840,12.632 14.840 C 12.515 14.840,11.838 14.453,11.441 14.158 C 10.770 13.661,10.167 13.034,9.716 12.364 C 9.449 11.970,9.160 11.448,9.160 11.363 C 9.160 11.341,9.536 10.751,9.995 10.052 C 10.455 9.352,10.860 8.694,10.895 8.589 C 10.981 8.334,10.977 8.021,10.884 7.756 C 10.804 7.527,9.009 3.330,8.908 3.135 C 8.813 2.952,8.572 2.728,8.347 2.613 C 8.096 2.484,7.644 2.453,7.240 2.537 M8.871 5.880 C 9.406 7.123,9.835 8.169,9.826 8.205 C 9.818 8.240,9.441 8.834,8.989 9.525 C 8.492 10.285,8.141 10.863,8.099 10.990 C 7.987 11.333,8.028 11.635,8.246 12.084 C 8.969 13.570,10.396 15.001,11.926 15.773 C 12.382 16.004,12.771 16.033,13.170 15.867 C 13.245 15.835,13.853 15.445,14.522 14.999 C 15.190 14.553,15.765 14.181,15.798 14.173 C 15.832 14.164,16.877 14.595,18.120 15.129 L 20.380 16.100 20.374 16.313 C 20.357 16.951,19.866 17.939,19.269 18.534 C 18.539 19.263,17.669 19.630,16.575 19.669 C 14.676 19.738,12.334 19.145,10.584 18.153 C 7.447 16.374,5.278 13.408,4.563 9.916 C 4.407 9.154,4.348 8.562,4.344 7.720 C 4.340 6.993,4.350 6.863,4.428 6.572 C 4.840 5.038,5.967 3.971,7.540 3.625 C 7.584 3.615,7.683 3.610,7.760 3.614 L 7.900 3.620 8.871 5.880 " fill="#DAC5A7" stroke="none" fill-rule="evenodd"></path></svg>