<svg width="18" height="18" viewBox="0 0 18 18" fill="none" xmlns="http://www.w3.org/2000/svg"><path d="M8.595 0.057 C 8.443 0.127,8.317 0.261,8.279 0.392 C 8.261 0.457,8.250 1.929,8.250 4.372 L 8.250 8.250 4.357 8.251 C 0.657 8.251,0.459 8.254,0.345 8.306 C -0.153 8.532,-0.082 9.243,0.450 9.357 C 0.556 9.380,1.769 9.390,4.426 9.390 L 8.250 9.390 8.251 13.282 C 8.251 17.019,8.254 17.180,8.307 17.298 C 8.338 17.366,8.409 17.457,8.465 17.499 C 8.562 17.574,8.791 17.646,8.861 17.625 C 8.880 17.620,8.932 17.607,8.977 17.597 C 9.079 17.575,9.256 17.422,9.324 17.298 C 9.371 17.212,9.376 16.909,9.383 13.298 L 9.391 9.391 13.298 9.383 C 16.909 9.376,17.212 9.371,17.298 9.324 C 17.422 9.256,17.575 9.079,17.597 8.977 C 17.607 8.932,17.620 8.880,17.625 8.861 C 17.646 8.791,17.574 8.562,17.499 8.465 C 17.457 8.409,17.366 8.338,17.298 8.307 C 17.180 8.254,17.019 8.251,13.282 8.251 L 9.390 8.250 9.389 4.417 C 9.389 1.892,9.378 0.539,9.358 0.451 C 9.276 0.095,8.915 -0.091,8.595 0.057 " fill="#DAC5A7" stroke="none" fill-rule="evenodd"></path></svg>