<svg width="24" height="24" viewBox="0 0 24 24" fill="none" xmlns="http://www.w3.org/2000/svg"><path d="M11.826 1.721 C 11.763 1.740,11.675 1.788,11.632 1.828 C 11.430 2.010,11.440 1.666,11.439 8.448 C 11.439 13.788,11.430 14.822,11.381 15.050 C 11.045 16.637,9.070 17.224,7.923 16.077 C 6.960 15.114,7.185 13.521,8.382 12.820 C 8.835 12.556,8.802 12.762,8.790 10.213 L 8.780 8.005 8.663 7.884 C 8.479 7.691,8.337 7.663,7.951 7.742 C 6.512 8.035,5.109 8.885,4.127 10.060 C 2.546 11.950,2.039 14.438,2.768 16.719 C 3.452 18.858,5.065 20.493,7.180 21.195 C 8.051 21.485,8.725 21.581,9.640 21.547 C 12.669 21.433,15.267 19.374,16.061 16.458 C 16.287 15.631,16.289 15.600,16.308 13.014 L 16.326 10.607 16.853 10.862 C 18.066 11.447,19.522 11.800,20.727 11.800 C 21.102 11.800,21.191 11.788,21.301 11.719 C 21.563 11.558,21.560 11.584,21.560 9.374 C 21.560 7.555,21.554 7.368,21.490 7.241 C 21.381 7.026,21.242 6.970,20.698 6.923 C 20.065 6.868,19.528 6.728,19.021 6.486 C 18.496 6.235,18.186 6.024,17.787 5.644 C 17.215 5.100,16.807 4.464,16.563 3.736 C 16.427 3.329,16.320 2.735,16.320 2.380 C 16.320 2.058,16.230 1.885,16.002 1.770 C 15.823 1.680,15.819 1.680,13.882 1.683 C 12.814 1.685,11.889 1.702,11.826 1.721 M15.216 2.890 C 15.226 2.939,15.263 3.142,15.299 3.340 C 15.737 5.752,17.779 7.681,20.250 8.019 L 20.440 8.045 20.440 9.362 C 20.440 10.087,20.432 10.680,20.422 10.680 C 20.292 10.680,19.378 10.538,19.120 10.478 C 18.203 10.263,17.184 9.830,16.405 9.321 C 16.156 9.159,15.905 9.026,15.822 9.013 C 15.629 8.981,15.382 9.094,15.279 9.261 C 15.202 9.386,15.200 9.467,15.199 11.965 C 15.198 15.159,15.169 15.592,14.896 16.430 C 14.252 18.409,12.596 19.880,10.508 20.327 C 9.957 20.445,8.875 20.454,8.341 20.347 C 7.104 20.097,6.134 19.582,5.280 18.723 C 4.405 17.843,3.871 16.828,3.653 15.632 C 3.561 15.129,3.561 14.112,3.652 13.611 C 3.877 12.382,4.439 11.315,5.337 10.417 C 5.987 9.768,6.603 9.365,7.410 9.062 L 7.680 8.961 7.680 10.452 L 7.680 11.943 7.557 12.015 C 7.182 12.237,6.676 12.847,6.458 13.342 C 6.223 13.871,6.136 14.638,6.244 15.223 C 6.430 16.238,7.215 17.188,8.193 17.584 C 8.936 17.883,9.921 17.869,10.650 17.546 C 11.426 17.203,12.068 16.525,12.356 15.743 C 12.567 15.173,12.560 15.415,12.560 8.877 L 12.560 2.800 13.879 2.800 L 15.198 2.800 15.216 2.890 " fill="#DAC5A7" stroke="none" fill-rule="evenodd"></path></svg>