<svg width="24" height="24" viewBox="0 0 24 24" fill="none" xmlns="http://www.w3.org/2000/svg"><path d="M4.071 3.260 C 3.846 3.343,3.570 3.547,3.440 3.726 C 3.182 4.083,3.198 3.552,3.210 11.322 L 3.220 18.380 3.326 18.582 C 3.456 18.827,3.741 19.097,3.993 19.214 C 4.166 19.294,4.255 19.301,5.190 19.313 L 6.200 19.326 6.200 20.985 C 6.200 22.736,6.203 22.763,6.386 22.926 C 6.427 22.962,6.533 23.014,6.622 23.040 C 6.755 23.079,6.809 23.077,6.928 23.028 C 7.008 22.994,8.051 22.151,9.246 21.154 L 11.420 19.340 13.600 19.320 L 15.780 19.300 16.000 19.196 C 16.262 19.072,20.349 15.686,20.549 15.427 C 20.816 15.080,20.800 15.455,20.800 9.574 C 20.800 4.276,20.799 4.242,20.717 4.021 C 20.616 3.751,20.340 3.455,20.060 3.318 L 19.860 3.220 12.040 3.213 C 5.486 3.207,4.196 3.214,4.071 3.260 M19.632 4.368 C 19.669 4.405,19.680 5.617,19.680 9.582 L 19.680 14.747 17.693 16.404 C 16.600 17.315,15.669 18.087,15.623 18.120 C 15.552 18.171,15.210 18.183,13.340 18.200 L 11.140 18.220 10.940 18.328 C 10.830 18.388,9.975 19.075,9.040 19.856 L 7.340 21.276 7.320 19.926 C 7.298 18.433,7.300 18.444,7.028 18.278 C 6.908 18.205,6.819 18.200,5.673 18.200 C 4.611 18.200,4.437 18.192,4.383 18.137 C 4.326 18.080,4.320 17.400,4.320 11.245 C 4.320 5.987,4.331 4.405,4.368 4.368 C 4.438 4.298,19.562 4.298,19.632 4.368 M10.998 7.770 C 10.666 7.938,10.680 7.819,10.680 10.491 C 10.680 13.040,10.678 13.018,10.899 13.192 C 11.129 13.373,11.448 13.341,11.663 13.116 L 11.780 12.995 11.780 10.501 L 11.780 8.006 11.680 7.898 C 11.574 7.783,11.371 7.680,11.250 7.680 C 11.210 7.680,11.097 7.720,10.998 7.770 M15.540 7.736 C 15.474 7.766,15.375 7.839,15.320 7.898 L 15.220 8.006 15.220 10.501 L 15.220 12.995 15.337 13.116 C 15.552 13.341,15.871 13.373,16.101 13.192 C 16.322 13.018,16.320 13.040,16.320 10.491 C 16.320 7.819,16.334 7.938,16.002 7.770 C 15.798 7.667,15.710 7.661,15.540 7.736 " fill="#DAC5A7" stroke="none" fill-rule="evenodd"></path></svg>