<svg width="24" height="24" viewBox="0 0 24 24" fill="none" xmlns="http://www.w3.org/2000/svg"><path d="M14.880 4.038 C 13.491 4.333,12.284 5.345,11.761 6.652 C 11.538 7.208,11.473 7.556,11.446 8.345 L 11.420 9.070 10.889 8.915 C 8.772 8.297,6.278 6.819,4.331 5.028 C 4.019 4.741,3.932 4.702,3.629 4.715 C 3.565 4.718,3.460 4.774,3.379 4.850 C 3.263 4.957,3.228 5.029,3.181 5.260 C 2.974 6.270,2.897 8.069,3.017 9.120 C 3.362 12.137,4.753 14.652,7.030 16.370 C 7.234 16.524,7.400 16.665,7.400 16.683 C 7.400 16.702,7.213 16.905,6.984 17.134 C 6.133 17.984,5.000 18.721,3.566 19.355 C 3.307 19.470,3.200 19.624,3.200 19.884 C 3.200 20.103,3.324 20.296,3.618 20.537 C 4.938 21.616,7.824 21.875,10.605 21.165 C 14.096 20.274,17.063 17.896,18.699 14.679 C 19.372 13.355,19.794 11.972,19.977 10.487 L 20.033 10.041 21.518 8.531 C 23.166 6.855,23.152 6.873,23.007 6.547 C 22.957 6.433,22.875 6.331,22.793 6.281 C 22.666 6.204,22.594 6.200,21.100 6.199 L 19.540 6.197 19.361 5.908 C 19.132 5.540,18.597 4.983,18.227 4.728 C 17.708 4.370,17.151 4.134,16.560 4.022 C 16.112 3.937,15.318 3.945,14.880 4.038 M16.660 5.199 C 17.487 5.459,18.205 6.057,18.579 6.797 C 18.724 7.084,18.839 7.212,19.013 7.277 C 19.082 7.303,19.516 7.320,20.132 7.320 L 21.138 7.320 20.053 8.410 C 19.457 9.010,18.959 9.536,18.947 9.580 C 18.934 9.624,18.905 9.864,18.881 10.113 C 18.671 12.292,17.811 14.403,16.417 16.160 C 15.796 16.943,14.716 17.922,13.780 18.549 C 11.871 19.828,9.474 20.508,7.160 20.428 C 6.261 20.396,5.632 20.281,4.923 20.018 C 4.890 20.006,5.048 19.897,5.303 19.755 C 6.718 18.969,7.963 17.917,8.603 16.967 C 8.762 16.729,8.800 16.641,8.800 16.503 C 8.800 16.261,8.673 16.097,8.329 15.894 C 7.736 15.545,6.973 14.909,6.483 14.355 C 5.075 12.768,4.327 11.019,4.115 8.820 C 4.067 8.316,4.090 6.713,4.148 6.510 L 4.180 6.400 4.480 6.647 C 6.224 8.079,8.292 9.251,10.160 9.868 C 10.634 10.024,11.598 10.263,11.900 10.300 C 12.145 10.330,12.336 10.244,12.469 10.044 C 12.557 9.913,12.560 9.878,12.560 8.999 C 12.560 8.370,12.579 7.984,12.620 7.746 C 12.849 6.434,13.790 5.444,15.100 5.137 C 15.463 5.053,16.300 5.086,16.660 5.199 " fill="#DAC5A7" stroke="none" fill-rule="evenodd"></path></svg>