<svg width="24" height="24" viewBox="0 0 24 24" fill="none" xmlns="http://www.w3.org/2000/svg"><path d="M11.300 2.463 C 11.234 2.472,11.009 2.499,10.800 2.523 C 9.137 2.712,7.333 3.480,5.967 4.582 C 4.834 5.496,3.838 6.798,3.257 8.126 C 2.142 10.676,2.167 13.513,3.327 16.020 C 3.459 16.306,3.569 16.558,3.570 16.580 C 3.572 16.602,3.316 17.393,3.002 18.337 C 2.451 19.992,2.431 20.064,2.449 20.318 C 2.498 21.003,3.011 21.511,3.693 21.548 C 3.974 21.564,4.019 21.551,5.711 20.985 L 7.442 20.407 7.614 20.503 C 8.171 20.814,9.265 21.194,10.080 21.358 C 12.605 21.868,15.134 21.379,17.280 19.966 C 18.372 19.246,19.458 18.121,20.143 17.000 C 21.902 14.117,22.023 10.566,20.464 7.577 C 19.981 6.651,19.433 5.916,18.674 5.178 C 17.871 4.397,17.173 3.905,16.180 3.420 C 15.251 2.966,14.353 2.686,13.357 2.538 C 12.959 2.479,11.552 2.428,11.300 2.463 M13.227 3.661 C 16.356 4.117,18.997 6.330,19.993 9.330 C 21.007 12.382,20.201 15.747,17.916 18.003 C 16.550 19.352,14.732 20.204,12.806 20.398 C 11.177 20.562,9.452 20.211,7.977 19.414 C 7.774 19.305,7.602 19.240,7.516 19.240 C 7.441 19.240,6.569 19.510,5.580 19.841 C 4.459 20.215,3.746 20.434,3.691 20.420 C 3.641 20.409,3.591 20.359,3.580 20.309 C 3.566 20.254,3.785 19.541,4.159 18.420 C 4.490 17.431,4.760 16.559,4.760 16.484 C 4.760 16.399,4.699 16.235,4.600 16.056 C 4.217 15.358,3.900 14.491,3.739 13.700 C 3.010 10.134,4.637 6.515,7.787 4.697 C 8.866 4.074,10.042 3.708,11.360 3.585 C 11.700 3.553,12.794 3.598,13.227 3.661 M9.122 6.244 C 8.454 6.360,7.765 6.722,7.261 7.220 C 6.891 7.586,6.678 7.891,6.493 8.320 C 6.282 8.810,6.231 9.051,6.210 9.670 C 6.153 11.383,6.730 13.147,7.832 14.622 C 8.174 15.081,8.919 15.826,9.378 16.168 C 10.802 17.232,12.476 17.800,14.184 17.800 C 14.986 17.800,15.633 17.611,16.245 17.197 C 17.190 16.560,17.841 15.351,17.794 14.322 C 17.782 14.052,17.765 13.991,17.680 13.899 C 17.527 13.734,14.437 12.200,14.258 12.200 C 14.074 12.200,13.989 12.246,13.202 12.772 C 12.840 13.014,12.515 13.219,12.479 13.229 C 12.374 13.256,11.716 12.788,11.422 12.477 C 11.110 12.146,10.748 11.612,10.772 11.519 C 10.781 11.484,11.010 11.124,11.281 10.719 C 11.693 10.101,11.776 9.952,11.791 9.799 C 11.808 9.628,11.761 9.521,11.009 8.018 C 10.548 7.097,10.163 6.378,10.101 6.320 C 10.006 6.232,9.955 6.219,9.667 6.213 C 9.487 6.209,9.242 6.223,9.122 6.244 M10.007 8.534 L 10.594 9.708 10.069 10.496 C 9.437 11.446,9.437 11.445,9.730 12.020 C 10.230 13.004,11.029 13.793,12.040 14.302 C 12.547 14.558,12.570 14.552,13.504 13.931 L 14.292 13.406 15.456 13.987 C 16.096 14.307,16.628 14.576,16.638 14.586 C 16.682 14.627,16.548 15.087,16.411 15.360 C 16.207 15.768,15.768 16.211,15.370 16.410 C 14.925 16.632,14.574 16.695,13.924 16.669 C 11.161 16.559,8.738 14.779,7.735 12.122 C 7.403 11.243,7.235 9.900,7.374 9.248 C 7.553 8.410,8.196 7.692,8.995 7.436 C 9.426 7.298,9.347 7.214,10.007 8.534 " fill="#DAC5A7" stroke="none" fill-rule="evenodd"></path></svg>