<svg width="24" height="24" viewBox="0 0 24 24" fill="none" xmlns="http://www.w3.org/2000/svg"><path d="M10.240 3.987 C 7.713 4.129,5.545 4.469,4.024 4.961 C 3.159 5.241,2.804 5.474,2.474 5.977 C 2.290 6.259,2.198 6.538,2.062 7.237 C 1.801 8.577,1.704 9.868,1.704 12.000 C 1.704 14.132,1.801 15.423,2.062 16.763 C 2.198 17.462,2.290 17.741,2.474 18.023 C 2.797 18.515,3.158 18.757,3.959 19.018 C 5.743 19.600,7.926 19.922,10.890 20.043 C 14.008 20.169,17.731 19.761,19.940 19.051 C 20.685 18.811,20.924 18.685,21.240 18.365 C 21.563 18.037,21.696 17.793,21.824 17.291 C 22.485 14.692,22.483 9.308,21.819 6.693 C 21.609 5.865,21.164 5.383,20.329 5.080 C 18.836 4.538,16.611 4.161,13.960 4.000 C 13.370 3.965,10.804 3.956,10.240 3.987 M13.780 5.120 C 16.227 5.263,18.177 5.565,19.603 6.024 C 20.434 6.291,20.580 6.424,20.741 7.059 C 20.852 7.497,21.010 8.546,21.082 9.320 C 21.151 10.056,21.178 13.136,21.123 14.010 C 21.019 15.681,20.786 17.110,20.563 17.442 C 20.411 17.668,20.237 17.773,19.737 17.939 C 18.444 18.367,16.634 18.681,14.540 18.839 C 10.725 19.128,6.355 18.713,3.976 17.836 C 3.691 17.731,3.387 17.442,3.322 17.213 C 3.222 16.860,3.077 16.056,3.003 15.440 C 2.872 14.360,2.831 13.542,2.831 12.000 C 2.831 10.130,2.915 8.892,3.123 7.720 C 3.348 6.445,3.422 6.340,4.306 6.046 C 5.690 5.585,8.007 5.230,10.420 5.107 C 11.029 5.076,13.168 5.085,13.780 5.120 M10.240 8.508 C 10.150 8.554,10.068 8.644,10.010 8.758 L 9.920 8.937 9.920 12.000 L 9.920 15.063 10.010 15.242 C 10.113 15.446,10.299 15.560,10.529 15.560 C 10.659 15.560,10.982 15.358,13.009 14.005 C 14.291 13.150,15.385 12.402,15.440 12.342 C 15.523 12.252,15.540 12.194,15.540 11.999 C 15.540 11.797,15.525 11.749,15.426 11.647 C 15.364 11.581,14.281 10.840,13.019 9.999 C 10.518 8.332,10.548 8.349,10.240 8.508 M12.634 11.100 C 13.362 11.584,13.958 11.989,13.958 12.000 C 13.958 12.016,11.701 13.530,11.196 13.854 L 11.080 13.928 11.080 12.000 L 11.080 10.072 11.196 10.146 C 11.259 10.187,11.907 10.616,12.634 11.100 " fill="#DAC5A7" stroke="none" fill-rule="evenodd"></path></svg>