<svg width="52" height="20" viewBox="0 0 52 20" fill="none" xmlns="http://www.w3.org/2000/svg">
<g clip-path="url(#clip0_2017_3007)">
<path d="M12.3431 0C10.3124 0 8.36487 0.8067 6.92893 2.24264L2.24264 6.92893C0.8067 8.36487 0 10.3124 0 12.3431C0 16.5719 3.42809 20 7.65687 20C9.6876 20 11.6351 19.1933 13.0711 17.7573L16.3126 14.5158C16.3126 14.5157 16.3127 14.5159 16.3126 14.5158L25.7573 5.07107C26.4431 4.38527 27.3733 4 28.3431 4C29.9669 4 31.3435 5.05827 31.8207 6.52271L34.8015 3.54197C33.4417 1.41223 31.0573 0 28.3431 0C26.3124 0 24.3649 0.8067 22.9289 2.24264L10.2427 14.9289C9.55687 15.6147 8.62673 16 7.65687 16C5.63723 16 4 14.3628 4 12.3431C4 11.3733 4.38527 10.4431 5.07107 9.75733L9.75733 5.07107C10.4431 4.38527 11.3733 4 12.3431 4C13.9669 4 15.3435 5.05832 15.8207 6.52281L18.8015 3.54205C17.4417 1.41227 15.0574 0 12.3431 0Z" fill="#DAC5A7"/>
<path d="M26.0439 14.9289C25.3581 15.6147 24.4279 16 23.4581 16C21.8345 16 20.4581 14.942 19.9807 13.4778L17 16.4585C18.3599 18.5879 20.7441 20 23.4581 20C25.4888 20 27.4363 19.1933 28.8723 17.7573L41.5585 5.07107C42.2443 4.38527 43.1745 4 44.1443 4C46.164 4 47.8012 5.63723 47.8012 7.65687C47.8012 8.62673 47.4159 9.55687 46.7301 10.2427L42.0439 14.9289C41.3581 15.6147 40.4279 16 39.4581 16C37.8344 16 36.4579 14.9418 35.9805 13.4775L32.9999 16.4582C34.3597 18.5879 36.7439 20 39.4581 20C41.4888 20 43.4363 19.1933 44.8723 17.7573L49.5585 13.0711C50.9945 11.6351 51.8012 9.6876 51.8012 7.65687C51.8012 3.42809 48.3731 0 44.1443 0C42.1136 0 40.1661 0.8067 38.7301 2.24264L26.0439 14.9289Z" fill="#DAC5A7"/>
</g>
<defs>
<clipPath id="clip0_2017_3007">
<rect width="52" height="20" fill="white"/>
</clipPath>
</defs>
</svg>
